<?xml version="1.0" encoding="UTF-8" standalone="no"?>
<svg
   version="1.1"
   viewBox="0 0 312.87238 366.61819"
   fill="none"
   stroke="none"
   stroke-linecap="square"
   stroke-miterlimit="10"
   id="svg25"
   sodipodi:docname="logos.svg"
   width="312.87238"
   height="366.61819"
   inkscape:version="1.1 (c68e22c387, 2021-05-23)"
   xmlns:inkscape="http://www.inkscape.org/namespaces/inkscape"
   xmlns:sodipodi="http://sodipodi.sourceforge.net/DTD/sodipodi-0.dtd"
   xmlns="http://www.w3.org/2000/svg"
   xmlns:svg="http://www.w3.org/2000/svg">
  <defs
     id="defs29" />
  <sodipodi:namedview
     id="namedview27"
     pagecolor="#ffffff"
     bordercolor="#666666"
     borderopacity="1.0"
     inkscape:pageshadow="2"
     inkscape:pageopacity="0.0"
     inkscape:pagecheckerboard="0"
     showgrid="false"
     fit-margin-top="0"
     fit-margin-left="0"
     fit-margin-right="0"
     fit-margin-bottom="0"
     inkscape:zoom="1.4114583"
     inkscape:cx="140.28044"
     inkscape:cy="224.94465"
     inkscape:window-width="1920"
     inkscape:window-height="1001"
     inkscape:window-x="-9"
     inkscape:window-y="-9"
     inkscape:window-maximized="1"
     inkscape:current-layer="g23" />
  <clipPath
     id="ge42323000d_0_0.0">
    <path
       d="M 0,0 H 960 V 540 H 0 Z"
       clip-rule="nonzero"
       id="path2" />
  </clipPath>
  <g
     clip-path="url(#ge42323000d_0_0.0)"
     id="g23"
     transform="translate(-333.45456,-17.323195)">
    <path
       fill="#000000"
       fill-opacity="0"
       d="M 225.37534,373.76117 H 735.23359 V 473.95013 H 225.37534 Z"
       fill-rule="evenodd"
       id="path7" />
    <path
       fill="#77440e"
       d="m 347.98581,371.08202 q -5.07813,0 -8.3125,-2.40625 -3.23438,-2.39063 -4.73438,-6.1875 -1.48437,-3.79688 -1.48437,-7.875 0,-5.26563 1.59375,-10.5625 1.59375,-5.29688 4.42187,-10.09375 2.84375,-4.79688 6.4375,-8.53125 3.60938,-3.73438 7.70313,-5.89063 4.09375,-2.17187 8.17187,-2.17187 2.92188,0 4.92188,1.375 2,1.35937 2,4.6875 0,2 -0.70313,4.46875 -0.6875,2.46875 -1.85937,4.76562 -1.17188,2.29688 -2.64063,3.76563 -1.45312,1.46875 -2.98437,1.46875 -0.67188,0 -1.40625,-0.46875 -0.73438,-0.46875 -1.32813,-1.60938 1,-1.125 2.26563,-2.75 1.26562,-1.64062 2.39062,-3.46875 1.14063,-1.84375 1.875,-3.60937 0.73438,-1.76563 0.73438,-3.09375 0,-1.20313 -0.67188,-1.90625 -0.67187,-0.70313 -2.32812,-0.70313 -2.9375,0 -6.04688,2.20313 -3.09375,2.20312 -5.96875,5.90625 -2.85937,3.70312 -5.15625,8.26562 -2.29687,4.5625 -3.64062,9.40625 -1.32813,4.82813 -1.32813,9.15625 0,3.20313 0.96875,6.10938 0.96875,2.89062 3.09375,4.71875 2.14063,1.82812 5.60938,1.82812 3.59375,0 7.15625,-2 3.57812,-2 6.53125,-5.26562 2.96875,-3.26563 4.78125,-7 l 1.71875,1.14062 q -2.32813,4.46875 -5.59375,8.17188 -3.26563,3.6875 -7.375,5.92187 -4.09375,2.23438 -8.8125,2.23438 z m 22.86182,-3.65625 q -3,0 -4.10938,-1.96875 -1.09375,-1.96875 -1.09375,-4.29688 0,-2.14062 0.67188,-4.375 0.65625,-2.23437 1.8125,-4.15625 1.17187,-1.9375 2.60937,-3.10937 1.4375,-1.17188 2.90625,-1.17188 0.46875,0 1.09375,0.17188 0.64063,0.17187 0.90625,0.5 -0.79687,1 -1.64062,2.46875 -0.82813,1.46875 -1.53125,3.10937 -0.70313,1.625 -1.10938,3.29688 -0.39062,1.65625 -0.39062,3.0625 0,1.32812 0.5,2.20312 0.5,0.85938 1.76562,0.85938 1.26563,0 3.03125,-1.42188 1.76563,-1.4375 3.375,-3.3125 -2.14062,-1.9375 -3.07812,-4.23437 -0.92188,-2.29688 -0.92188,-5.5625 0,-1.40625 0.6875,-3.20313 0.70313,-1.79687 2.26563,-3.125 1.57812,-1.34375 4.23437,-1.34375 2.875,0 4.03125,1.60938 1.17188,1.59375 1.17188,3.79687 0,2.46875 -1.29688,5.53125 -1.29687,3.0625 -3.09375,5.79688 0.79688,0.40625 1.85938,0.40625 1,0 2.39062,-0.46875 1.40625,-0.46875 2.73438,-1.5625 1.34375,-1.10938 2.14062,-2.96875 l 1.20313,0.85937 q -1.46875,3.40625 -3.90625,4.96875 -2.42188,1.5625 -4.76563,1.5625 -0.85937,0 -1.73437,-0.15625 -0.85938,-0.17187 -1.59375,-0.4375 -2.26563,2.67188 -5.20313,4.67188 -2.92187,2 -5.92187,2 z m 10.53125,-10.26563 q 1.59375,-2.34375 2.71875,-5 1.14062,-2.67187 1.14062,-4.9375 0,-1.53125 -0.46875,-2.23437 -0.46875,-0.70313 -1.39062,-0.70313 -1.26563,0 -2.60938,1.8125 -1.32812,1.79688 -1.32812,4.51563 0,1.40625 0.5,3.40625 0.5,2 1.4375,3.14062 z m 9.79617,26.78125 q -0.73438,0 -1.76563,-0.46875 -1.03125,-0.45312 -1.79687,-1.82812 -0.78125,-1.35938 -0.78125,-4.09375 0,-2.85938 0.96875,-7.5 0.96875,-4.625 2.67187,-10.25 1.70313,-5.64063 4,-11.57813 2.29688,-5.9375 4.92188,-11.4375 2.64062,-5.5 5.46875,-9.89062 2.84375,-4.40625 5.64062,-7 2.79688,-2.60938 5.39063,-2.60938 1.73437,0 2.26562,1.04688 0.54688,1.03125 0.54688,2.35937 0,2.85938 -1.57813,6.26563 -1.5625,3.40625 -4.17187,6.84375 -2.59375,3.42187 -5.82813,6.48437 -3.21875,3.0625 -6.625,5.26563 -0.26562,0.67187 -0.53125,1.34375 -0.26562,0.65625 -0.53125,1.32812 0.73438,0.26563 1.15625,0.9375 0.4375,0.65625 0.5,1.39063 0.53125,2.875 1.0625,5.10937 0.54688,2.21875 1.64063,3.5 1.10937,1.26563 3.17187,1.26563 2.32813,0 4.125,-1.73438 1.79688,-1.73437 3.67188,-4.875 l 1.46875,1.07813 q -2.14063,4.26562 -4.8125,6.23437 -2.65625,1.95313 -4.79688,1.95313 -1.125,0 -2.35937,-0.46875 -1.23438,-0.46875 -2.35938,-1.32813 -0.0781,4.14063 -0.98437,8.17188 -0.89063,4.03125 -2.42188,7.29687 -1.53125,3.26563 -3.4375,5.21875 -1.89062,1.96875 -3.89062,1.96875 z m 1.85937,-4.125 q 0.73438,0 1.5625,-1.26562 0.84375,-1.26563 1.64063,-3.34375 0.79687,-2.0625 1.45312,-4.5625 0.67188,-2.5 1.07813,-4.9375 0.40625,-2.42188 0.40625,-4.42188 0,-1.9375 -0.4375,-3.4375 -0.4375,-1.5 -1.5,-3.35937 -1.53125,4.59375 -2.73438,8.85937 -1.20312,4.26563 -1.875,7.76563 -0.65625,3.5 -0.65625,5.84375 0,2.85937 1.0625,2.85937 z m 9.40625,-38.92187 q 4.0625,-3.8125 6.92188,-7.40625 2.875,-3.59375 4.375,-6.35938 1.5,-2.76562 1.5,-3.90625 0,-0.53125 -0.53125,-0.53125 -1.60938,0 -3.67188,2.4375 -2.0625,2.42188 -4.26562,6.5625 -2.20313,4.125 -4.32813,9.20313 z m 10.73096,43.04687 q -0.73437,0 -1.76562,-0.46875 -1.03125,-0.45312 -1.79688,-1.82812 -0.78125,-1.35938 -0.78125,-4.09375 0,-2.85938 0.96875,-7.5 0.96875,-4.625 2.67188,-10.25 1.70312,-5.64063 4,-11.57813 2.29687,-5.9375 4.92187,-11.4375 2.64063,-5.5 5.46875,-9.89062 2.84375,-4.40625 5.64063,-7 2.79687,-2.60938 5.39062,-2.60938 1.73438,0 2.26563,1.04688 0.54687,1.03125 0.54687,2.35937 0,2.85938 -1.57812,6.26563 -1.5625,3.40625 -4.17188,6.84375 -2.59375,3.42187 -5.82812,6.48437 -3.21875,3.0625 -6.625,5.26563 -0.26563,0.67187 -0.53125,1.34375 -0.26563,0.65625 -0.53125,1.32812 0.73437,0.26563 1.15625,0.9375 0.4375,0.65625 0.5,1.39063 0.53125,2.875 1.0625,5.10937 0.54687,2.21875 1.64062,3.5 1.10938,1.26563 3.17188,1.26563 2.32812,0 4.125,-1.73438 1.79687,-1.73437 3.67187,-4.875 l 1.46875,1.07813 q -2.14062,4.26562 -4.8125,6.23437 -2.65625,1.95313 -4.79687,1.95313 -1.125,0 -2.35938,-0.46875 -1.23437,-0.46875 -2.35937,-1.32813 -0.0781,4.14063 -0.98438,8.17188 -0.89062,4.03125 -2.42187,7.29687 -1.53125,3.26563 -3.4375,5.21875 -1.89063,1.96875 -3.89063,1.96875 z m 1.85938,-4.125 q 0.73437,0 1.5625,-1.26562 0.84375,-1.26563 1.64062,-3.34375 0.79688,-2.0625 1.45313,-4.5625 0.67187,-2.5 1.07812,-4.9375 0.40625,-2.42188 0.40625,-4.42188 0,-1.9375 -0.4375,-3.4375 -0.4375,-1.5 -1.5,-3.35937 -1.53125,4.59375 -2.73437,8.85937 -1.20313,4.26563 -1.875,7.76563 -0.65625,3.5 -0.65625,5.84375 0,2.85937 1.0625,2.85937 z m 9.40625,-38.92187 q 4.0625,-3.8125 6.92187,-7.40625 2.875,-3.59375 4.375,-6.35938 1.5,-2.76562 1.5,-3.90625 0,-0.53125 -0.53125,-0.53125 -1.60937,0 -3.67187,2.4375 -2.0625,2.42188 -4.26563,6.5625 -2.20312,4.125 -4.32812,9.20313 z m 41.32473,27.65625 q -4.0625,0 -6.26562,-2.17188 -2.20313,-2.15625 -2.53125,-5.21875 -2.875,3.32813 -6.54688,5.1875 -3.65625,1.875 -7.39062,1.875 -4.32813,0 -6.64063,-2.3125 -2.29687,-2.29687 -2.29687,-5.6875 0,-2.9375 1.5,-6.20312 1.5,-3.26563 4.03125,-6.15625 2.54687,-2.90625 5.60937,-4.73438 3.0625,-1.84375 6.26563,-1.84375 1.73437,0 3.23437,0.875 1.5,0.85938 1.5,3.53125 0,2.46875 -1.46875,4.64063 -1.46875,2.15625 -3.9375,3.82812 -2.46875,1.65625 -5.4375,2.73438 -2.95312,1.0625 -5.95312,1.39062 -0.0781,0.26563 -0.10938,0.70313 -0.0312,0.4375 -0.0312,0.96875 0,1.20312 0.39063,2.4375 0.40625,1.21875 1.5,2.09375 1.10937,0.85937 3.3125,0.85937 3.53125,0 6.89062,-2.29687 3.375,-2.29688 5.90625,-5.76563 0.59375,-2.73437 2.125,-5.39062 1.54688,-2.67188 3.78125,-4.875 2.23438,-2.20313 4.85938,-3.53125 2.64062,-1.32813 5.35937,-1.32813 1.8125,0 3.3125,0.875 1.5,0.85938 1.5,3.59375 0,3.26563 -2.3125,5.79688 -2.29687,2.53125 -5.9375,4.09375 -3.625,1.5625 -7.6875,2.03125 -0.0625,0.32812 -0.10937,0.70312 -0.0312,0.35938 -0.0312,0.90625 0,1.1875 0.35937,2.45313 0.375,1.26562 1.4375,2.17187 1.07813,0.90625 3.20313,0.90625 2.875,0 5.76562,-1.67187 2.90625,-1.67188 5.40625,-4.35938 2.5,-2.70312 4.09375,-5.84375 l 1.20313,0.9375 q -1.79688,4 -4.64063,7.10938 -2.82812,3.09375 -6.23437,4.89062 -3.39063,1.79688 -6.98438,1.79688 z m -25.59375,-12.39063 q 1.85938,-0.67187 3.95313,-1.76562 2.10937,-1.10938 4,-2.53125 1.90625,-1.4375 3.10937,-3.0625 1.20313,-1.64063 1.20313,-3.375 0,-0.53125 -0.23438,-0.82813 -0.23437,-0.3125 -0.96875,-0.3125 -1.40625,0 -3.04687,1.03125 -1.625,1.03125 -3.1875,2.76563 -1.5625,1.73437 -2.82813,3.84375 -1.26562,2.09375 -2,4.23437 z m 22.85938,0 q 1.73437,-0.60937 3.70312,-1.5 1.96875,-0.90625 3.6875,-2.10937 1.73438,-1.20313 2.85938,-2.70313 1.14062,-1.5 1.14062,-3.29687 0,-0.79688 -0.26562,-1.09375 -0.26563,-0.29688 -1,-0.29688 -1.85938,0 -3.85938,1.5625 -2,1.5625 -3.67187,4.0625 -1.65625,2.5 -2.59375,5.375 z m 51.66528,14.92188 q -5.07812,0 -8.3125,-2.40625 -3.23437,-2.39063 -4.73437,-6.1875 -1.48438,-3.79688 -1.48438,-7.875 0,-5.26563 1.59375,-10.5625 1.59375,-5.29688 4.42188,-10.09375 2.84375,-4.79688 6.4375,-8.53125 3.60937,-3.73438 7.70312,-5.89063 4.09375,-2.17187 8.17188,-2.17187 2.92187,0 4.92187,1.375 2,1.35937 2,4.6875 0,2 -0.70312,4.46875 -0.6875,2.46875 -1.85938,4.76562 -1.17187,2.29688 -2.64062,3.76563 -1.45313,1.46875 -2.98438,1.46875 -0.67187,0 -1.40625,-0.46875 -0.73437,-0.46875 -1.32812,-1.60938 1,-1.125 2.26562,-2.75 1.26563,-1.64062 2.39063,-3.46875 1.14062,-1.84375 1.875,-3.60937 0.73437,-1.76563 0.73437,-3.09375 0,-1.20313 -0.67187,-1.90625 -0.67188,-0.70313 -2.32813,-0.70313 -2.9375,0 -6.04687,2.20313 -3.09375,2.20312 -5.96875,5.90625 -2.85938,3.70312 -5.15625,8.26562 -2.29688,4.5625 -3.64063,9.40625 -1.32812,4.82813 -1.32812,9.15625 0,3.20313 0.96875,6.10938 0.96875,2.89062 3.09375,4.71875 2.14062,1.82812 5.60937,1.82812 3.59375,0 7.15625,-2 3.57813,-2 6.53125,-5.26562 2.96875,-3.26563 4.78125,-7 l 1.71875,1.14062 q -2.32812,4.46875 -5.59375,8.17188 -3.26562,3.6875 -7.375,5.92187 -4.09375,2.23438 -8.8125,2.23438 z m 21.51807,-3.26563 q -1.46875,0 -2.10938,-2.26562 -0.625,-2.26563 -0.625,-5.26563 0,-3.0625 1.03125,-7.39062 1.04688,-4.34375 2.8125,-9.14063 1.76563,-4.79687 3.92188,-9.39062 2.17187,-4.60938 4.46875,-8.375 2.29687,-3.76563 4.39062,-6.03125 2.10938,-2.26563 3.70313,-2.26563 1.40625,0 2.14062,1.53125 0.73438,1.53125 0.73438,3.20313 0,1.79687 -0.84375,4.4375 -0.82813,2.625 -2.29688,5.625 -1.45312,3 -3.42187,5.90625 -1.96875,2.89062 -4.28125,5.29687 -2.29688,2.39063 -4.75,3.85938 -0.875,2.26562 -1.375,4.23437 -0.5,1.96875 -0.70313,3.70313 -0.1875,1.73437 -0.1875,3.39062 0,0.34375 0.0312,0.71875 0.0312,0.35938 0.0312,0.6875 0.26563,-0.40625 0.85938,-2.0625 0.60937,-1.67187 1.64062,-3.90625 1.03125,-2.23437 2.5625,-4.39062 1.53125,-2.17188 3.59375,-3.59375 2.07813,-1.4375 4.73438,-1.4375 2.26562,0 3.53125,1.03125 1.26562,1.03125 1.79687,2.53125 0.54688,1.5 0.54688,3.03125 0,2.125 -0.70313,4 -0.70312,1.85937 -1.40625,3.5 -0.6875,1.625 -0.6875,3.09375 0,1.20312 0.53125,1.67187 0.53125,0.46875 1.26563,0.46875 1.46875,0 3.42187,-1.46875 1.96875,-1.46875 3.9375,-3.89062 1.96875,-2.4375 3.375,-5.375 l 1.0625,1.125 q -1.53125,3.34375 -3.60937,6.14062 -2.0625,2.79688 -4.53125,4.46875 -2.45313,1.65625 -5.32813,1.65625 -2.53125,0 -3.875,-1.32812 -1.32812,-1.32813 -1.32812,-3.32813 0,-1.40625 0.5,-3.09375 0.5,-1.70312 0.96875,-3.4375 0.46875,-1.73437 0.46875,-3.14062 0,-1.59375 -0.70313,-2.1875 -0.70312,-0.60938 -1.6875,-0.60938 -1.67187,0 -3.01562,1.29688 -1.32813,1.29687 -2.39063,3.375 -1.0625,2.0625 -2,4.35937 -0.9375,2.29688 -1.875,4.375 -0.92187,2.0625 -1.95312,3.35938 -1.03125,1.29687 -2.375,1.29687 z m 6.26562,-24.53125 q 1.73438,-1.53125 3.32813,-3.65625 1.60937,-2.14062 2.96875,-4.4375 1.375,-2.29687 2.40625,-4.46875 1.03125,-2.17187 1.625,-3.89062 0.60937,-1.73438 0.67187,-2.67188 0,-0.0625 0,-0.0937 0,-0.0469 0,-0.10937 -0.39062,0 -1.70312,1.64062 -1.29688,1.625 -3,4.39063 -1.6875,2.76562 -3.39063,6.23437 -1.70312,3.46875 -2.90625,7.0625 z m 27.33448,25.14063 q -2.20313,0 -3.82813,-1.46875 -1.64062,-1.46875 -1.64062,-4.40625 0,-2.32813 1.07812,-5.0625 1.0625,-2.73438 2.92188,-5.39063 1.85937,-2.67187 4.26562,-4.84375 2.40625,-2.17187 5.125,-3.5 2.73438,-1.32812 5.46875,-1.32812 2.875,0 4.875,1.46875 2,1.45312 2,3.85937 0,1.79688 -1.26562,2.60938 -1.26563,0.79687 -3,0.45312 0.125,-0.59375 0.21875,-1.1875 0.10937,-0.60937 0.10937,-1.28125 0,-1.32812 -0.53125,-2.39062 -0.53125,-1.0625 -2.26562,-1.0625 -1.875,0 -3.8125,1.26562 -1.92188,1.26563 -3.6875,3.29688 -1.76563,2.03125 -3.17188,4.46875 -1.39062,2.42187 -2.20312,4.76562 -0.79688,2.32813 -0.79688,4.1875 0,2.14063 1.53125,2.14063 1.54688,0 3.40625,-1.5 1.85938,-1.5 3.76563,-3.76563 1.90625,-2.26562 3.625,-4.625 1.73437,-2.375 3.01562,-4.04687 0.1875,-0.32813 0.53125,-0.32813 0.26563,0.0625 1.03125,0.29688 0.76563,0.23437 1.42188,0.70312 0.67187,0.46875 0.67187,1.20313 0,0.65625 -0.5625,1.70312 -0.5625,1.03125 -1.32812,2.26563 -0.76563,1.23437 -1.34375,2.46875 -0.5625,1.21875 -0.5625,2.35937 0,0.85938 0.46875,1.625 0.46875,0.76563 1.53125,0.76563 1.59375,0 4.5,-2.35938 2.90625,-2.35937 5.89062,-8.03125 l 1.28125,1.26563 q -1.60937,3.59375 -3.84375,6.35937 -2.23437,2.76563 -4.70312,4.32813 -2.45313,1.57812 -4.98438,1.57812 -2.73437,0 -4.07812,-1.73437 -1.32813,-1.73438 -1.46875,-3.73438 0,-0.125 0,-0.1875 0,-0.0781 0,-0.14062 -2.65625,3.20312 -4.89063,5.0625 -2.23437,1.875 -4.76562,1.875 z m 31.1892,-1.14063 q -2.92187,0 -4.39062,-1.73437 -1.46875,-1.73438 -1.46875,-4.20313 0,-1.53125 0.53125,-3.85937 0.53125,-2.32813 1.5,-4.89063 0.96875,-2.57812 2.23437,-4.84375 1.26563,-2.26562 2.73438,-3.6875 1.46875,-1.4375 2.9375,-1.4375 0.79687,0 1.39062,0.46875 0.59375,0.45313 0.59375,1.45313 0,0.875 -1.03125,2.60937 -1.03125,1.73438 -2.40625,4 -1.35937,2.26563 -2.39062,4.70313 -1.03125,2.42187 -1.03125,4.625 0,2.125 0.76562,2.82812 0.76563,0.70313 2.23438,0.70313 2.26562,0 4.92187,-2.26563 2.67188,-2.26562 5.54688,-7.9375 l 1,1.07813 q -2.32813,5.85937 -5.9375,9.125 -3.59375,3.26562 -7.73438,3.26562 z m 7.875,-30.0625 q -1.26562,0 -2.3125,-0.625 -1.03125,-0.64062 -1.03125,-1.96875 0,-1.60937 1.73438,-2.73437 1.73437,-1.14063 3.60937,-1.14063 1.1875,0 2.01563,0.53125 0.84375,0.53125 0.84375,1.9375 0,1.40625 -1.53125,2.70313 -1.53125,1.29687 -3.32813,1.29687 z m 25.52979,29.39063 q -2.60938,0 -3.98438,-1.29688 -1.35937,-1.29687 -1.35937,-3.29687 0,-1.32813 0.46875,-2.82813 0.46875,-1.5 0.9375,-3.03125 0.46875,-1.54687 0.46875,-2.9375 0,-1.46875 -0.70313,-2.03125 -0.70312,-0.57812 -1.625,-0.57812 -2,0 -4.10937,1.64062 -2.09375,1.64063 -4.0625,4.10938 -1.96875,2.45312 -3.70313,5.125 -1.73437,2.65625 -3,4.79687 -1.26562,0 -2.39062,-0.4375 -1.14063,-0.42187 -1.9375,-1.5 0.0625,-0.32812 0.76562,-2.03125 0.70313,-1.70312 1.57813,-4.0625 0.85937,-2.375 1.51562,-4.96875 0.67188,-2.59375 0.67188,-4.73437 0.46875,-0.53125 1.4375,-1.0625 0.96875,-0.53125 2.03125,-0.53125 2.32812,0 2.32812,2 0,0.79687 -0.29687,2.375 -0.29688,1.5625 -0.82813,3.5625 1.73438,-2.34375 3.79688,-4.40625 2.0625,-2.0625 4.29687,-3.35938 2.23438,-1.3125 4.5,-1.3125 2.85938,0 4.21875,1.9375 1.375,1.9375 1.375,4.26563 0,2 -0.67187,3.73437 -0.65625,1.73438 -1.29688,3.26563 -0.625,1.53125 -0.625,3 0,1.0625 0.5,1.5 0.5,0.4375 1.09375,0.4375 1.60938,0 3.32813,-1.53125 1.73437,-1.54688 3.29687,-3.90625 1.57813,-2.35938 2.78125,-4.76563 l 1.125,0.9375 q -1.39062,3.26563 -3.15625,5.96875 -1.76562,2.6875 -3.9375,4.32813 -2.17187,1.625 -4.82812,1.625 z"
       fill-rule="nonzero"
       id="path9" />
    <path
       fill="#77440e"
       d="m 530.15447,17.823195 h 75.30707 c 3.1e-4,0 6.7e-4,1.37e-4 8.5e-4,3.74e-4 2.5e-4,2.29e-4 3.7e-4,5.49e-4 3.7e-4,8.85e-4 l -10e-4,89.825526 c 0,41.59093 -33.71612,75.30707 -75.30707,75.30707 h -75.3071 v 0 c -7e-4,0 -0.001,-5.8e-4 -0.001,-0.001 l 0.001,-89.825525 v 0 c 0,-41.59094 33.71613,-75.307082 75.3071,-75.307082 z"
       fill-rule="evenodd"
       id="path11" />
    <path
       stroke="#595959"
       stroke-width="1"
       stroke-linejoin="round"
       stroke-linecap="butt"
       d="m 530.15447,17.823195 h 75.30707 c 3.1e-4,0 6.7e-4,1.37e-4 8.5e-4,3.74e-4 2.5e-4,2.29e-4 3.7e-4,5.49e-4 3.7e-4,8.85e-4 l -10e-4,89.825526 c 0,41.59093 -33.71612,75.30707 -75.30707,75.30707 h -75.3071 v 0 c -7e-4,0 -0.001,-5.8e-4 -0.001,-0.001 l 0.001,-89.825525 v 0 c 0,-41.59094 33.71613,-75.307082 75.3071,-75.307082 z"
       fill-rule="evenodd"
       id="path13" />
    <path
       fill="#ffffff"
       d="m 530.15547,45.067285 h 49.13391 c 1.8e-4,0 4.3e-4,1e-4 5.5e-4,2.5e-4 1.8e-4,1.5e-4 2.4e-4,3.6e-4 2.4e-4,5.8e-4 l -7.9e-4,61.510985 c 0,27.13588 -21.99799,49.13386 -49.13391,49.13386 h -49.13382 v 0 c -4.6e-4,0 -8.2e-4,-3.7e-4 -8.2e-4,-8.2e-4 l 8.2e-4,-61.510985 v 0 c 0,-27.13588 21.99795,-49.13387 49.13382,-49.13387 z"
       fill-rule="evenodd"
       id="path15" />
    <path
       fill="#bd6102"
       d="m 444.62424,103.72347 h 75.30707 c 3.7e-4,0 6.7e-4,1.2e-4 9.2e-4,3.7e-4 2.4e-4,2.3e-4 3.6e-4,5.5e-4 3.6e-4,8.8e-4 l -10e-4,89.82551 c 0,41.59094 -33.7161,75.3071 -75.30707,75.3071 h -75.3071 v 0 c -6.7e-4,0 -0.001,-5.8e-4 -0.001,-10e-4 l 0.001,-89.82553 v 0 c 0,-41.59096 33.71616,-75.30707 75.3071,-75.30707 z"
       fill-rule="evenodd"
       id="path17" />
    <path
       stroke="#595959"
       stroke-width="1"
       stroke-linejoin="round"
       stroke-linecap="butt"
       d="m 444.62424,103.72347 h 75.30707 c 3.7e-4,0 6.7e-4,1.2e-4 9.2e-4,3.7e-4 2.4e-4,2.3e-4 3.6e-4,5.5e-4 3.6e-4,8.8e-4 l -10e-4,89.82551 c 0,41.59094 -33.7161,75.3071 -75.30707,75.3071 h -75.3071 v 0 c -6.7e-4,0 -0.001,-5.8e-4 -0.001,-10e-4 l 0.001,-89.82553 v 0 c 0,-41.59096 33.71616,-75.30707 75.3071,-75.30707 z"
       fill-rule="evenodd"
       id="path19" />
    <path
       fill="#ffffff"
       d="m 444.62534,133.20116 h 49.13385 c 2.1e-4,0 4.3e-4,8e-5 5.8e-4,2.3e-4 1.5e-4,1.5e-4 2.4e-4,3.7e-4 2.4e-4,5.8e-4 l -8.2e-4,61.51097 c 0,27.1359 -21.99799,49.13388 -49.13385,49.13388 h -49.13385 v 0 c -4.6e-4,0 -8.2e-4,-3.6e-4 -8.2e-4,-8.2e-4 l 8.2e-4,-61.51099 v 0 c 0,-27.13589 21.99796,-49.13385 49.13385,-49.13385 z"
       fill-rule="evenodd"
       id="path21" />
  </g>
</svg>
