<?xml version="1.0" encoding="UTF-8" standalone="no"?>
<svg
   version="1.1"
   viewBox="0 0 237.14635 252.03413"
   fill="none"
   stroke="none"
   stroke-linecap="square"
   stroke-miterlimit="10"
   id="svg25"
   sodipodi:docname="logots.svg"
   width="237.14635"
   height="252.03413"
   inkscape:version="1.1 (c68e22c387, 2021-05-23)"
   xmlns:inkscape="http://www.inkscape.org/namespaces/inkscape"
   xmlns:sodipodi="http://sodipodi.sourceforge.net/DTD/sodipodi-0.dtd"
   xmlns="http://www.w3.org/2000/svg"
   xmlns:svg="http://www.w3.org/2000/svg">
  <defs
     id="defs29" />
  <sodipodi:namedview
     id="namedview27"
     pagecolor="#ffffff"
     bordercolor="#666666"
     borderopacity="1.0"
     inkscape:pageshadow="2"
     inkscape:pageopacity="0.0"
     inkscape:pagecheckerboard="0"
     showgrid="false"
     fit-margin-top="0"
     fit-margin-left="0"
     fit-margin-right="0"
     fit-margin-bottom="0"
     inkscape:zoom="1.4114583"
     inkscape:cx="104.85609"
     inkscape:cy="224.94465"
     inkscape:window-width="1920"
     inkscape:window-height="1001"
     inkscape:window-x="-9"
     inkscape:window-y="-9"
     inkscape:window-maximized="1"
     inkscape:current-layer="g23" />
  <clipPath
     id="ge42323000d_0_0.0">
    <path
       d="M 0,0 H 960 V 540 H 0 Z"
       clip-rule="nonzero"
       id="path2" />
  </clipPath>
  <g
     clip-path="url(#ge42323000d_0_0.0)"
     id="g23"
     transform="translate(-368.81642,-17.323195)">
    <path
       fill="#000000"
       fill-opacity="0"
       d="M 225.37534,373.76117 H 735.23359 V 473.95013 H 225.37534 Z"
       fill-rule="evenodd"
       id="path7" />
    <path
       fill="#77440e"
       d="m 530.15447,17.823195 h 75.30707 c 3.1e-4,0 6.7e-4,1.37e-4 8.5e-4,3.74e-4 2.5e-4,2.29e-4 3.7e-4,5.49e-4 3.7e-4,8.85e-4 l -10e-4,89.825526 c 0,41.59093 -33.71612,75.30707 -75.30707,75.30707 h -75.3071 v 0 c -7e-4,0 -0.001,-5.8e-4 -0.001,-0.001 l 0.001,-89.825525 v 0 c 0,-41.59094 33.71613,-75.307082 75.3071,-75.307082 z"
       fill-rule="evenodd"
       id="path11" />
    <path
       stroke="#595959"
       stroke-width="1"
       stroke-linejoin="round"
       stroke-linecap="butt"
       d="m 530.15447,17.823195 h 75.30707 c 3.1e-4,0 6.7e-4,1.37e-4 8.5e-4,3.74e-4 2.5e-4,2.29e-4 3.7e-4,5.49e-4 3.7e-4,8.85e-4 l -10e-4,89.825526 c 0,41.59093 -33.71612,75.30707 -75.30707,75.30707 h -75.3071 v 0 c -7e-4,0 -0.001,-5.8e-4 -0.001,-0.001 l 0.001,-89.825525 v 0 c 0,-41.59094 33.71613,-75.307082 75.3071,-75.307082 z"
       fill-rule="evenodd"
       id="path13" />
    <path
       fill="#ffffff"
       d="m 530.15547,45.067285 h 49.13391 c 1.8e-4,0 4.3e-4,1e-4 5.5e-4,2.5e-4 1.8e-4,1.5e-4 2.4e-4,3.6e-4 2.4e-4,5.8e-4 l -7.9e-4,61.510985 c 0,27.13588 -21.99799,49.13386 -49.13391,49.13386 h -49.13382 v 0 c -4.6e-4,0 -8.2e-4,-3.7e-4 -8.2e-4,-8.2e-4 l 8.2e-4,-61.510985 v 0 c 0,-27.13588 21.99795,-49.13387 49.13382,-49.13387 z"
       fill-rule="evenodd"
       id="path15" />
    <path
       fill="#bd6102"
       d="m 444.62424,103.72347 h 75.30707 c 3.7e-4,0 6.7e-4,1.2e-4 9.2e-4,3.7e-4 2.4e-4,2.3e-4 3.6e-4,5.5e-4 3.6e-4,8.8e-4 l -10e-4,89.82551 c 0,41.59094 -33.7161,75.3071 -75.30707,75.3071 h -75.3071 v 0 c -6.7e-4,0 -0.001,-5.8e-4 -0.001,-10e-4 l 0.001,-89.82553 v 0 c 0,-41.59096 33.71616,-75.30707 75.3071,-75.30707 z"
       fill-rule="evenodd"
       id="path17" />
    <path
       stroke="#595959"
       stroke-width="1"
       stroke-linejoin="round"
       stroke-linecap="butt"
       d="m 444.62424,103.72347 h 75.30707 c 3.7e-4,0 6.7e-4,1.2e-4 9.2e-4,3.7e-4 2.4e-4,2.3e-4 3.6e-4,5.5e-4 3.6e-4,8.8e-4 l -10e-4,89.82551 c 0,41.59094 -33.7161,75.3071 -75.30707,75.3071 h -75.3071 v 0 c -6.7e-4,0 -0.001,-5.8e-4 -0.001,-10e-4 l 0.001,-89.82553 v 0 c 0,-41.59096 33.71616,-75.30707 75.3071,-75.30707 z"
       fill-rule="evenodd"
       id="path19" />
    <path
       fill="#ffffff"
       d="m 444.62534,133.20116 h 49.13385 c 2.1e-4,0 4.3e-4,8e-5 5.8e-4,2.3e-4 1.5e-4,1.5e-4 2.4e-4,3.7e-4 2.4e-4,5.8e-4 l -8.2e-4,61.51097 c 0,27.1359 -21.99799,49.13388 -49.13385,49.13388 h -49.13385 v 0 c -4.6e-4,0 -8.2e-4,-3.6e-4 -8.2e-4,-8.2e-4 l 8.2e-4,-61.51099 v 0 c 0,-27.13589 21.99796,-49.13385 49.13385,-49.13385 z"
       fill-rule="evenodd"
       id="path21" />
  </g>
</svg>
